<?xml version="1.0" encoding="utf-8"?>
<!-- Generator: Adobe Illustrator 16.0.4, SVG Export Plug-In . SVG Version: 6.00 Build 0)  -->
<!DOCTYPE svg PUBLIC "-//W3C//DTD SVG 1.1//EN" "http://www.w3.org/Graphics/SVG/1.1/DTD/svg11.dtd">
<svg version="1.1" id="レイヤー_1" xmlns="http://www.w3.org/2000/svg" xmlns:xlink="http://www.w3.org/1999/xlink" x="0px"
	 y="0px" width="120px" height="40px" viewBox="0 0 300 100" enable-background="new 0 0 300 100" xml:space="preserve">
<g>
	<path fill="#E5E5E5" d="M15.518,66.712c-6.271-5.503-7.936-12.671-7.936-18.878c0-4.352,1.344-11.903,7.488-17.535
		c4.607-4.224,10.687-6.784,20.222-6.784c3.968,0,6.336,0.256,9.28,0.64c2.432,0.32,4.479,0.896,6.399,1.088
		c0.704,0.064,0.96,0.384,0.96,0.768c0,0.512-0.192,1.28-0.32,3.52c-0.128,2.112-0.064,5.631-0.192,6.912
		c-0.064,0.96-0.192,1.472-0.768,1.472c-0.512,0-0.64-0.512-0.64-1.408c-0.064-1.984-0.896-4.224-2.496-5.888
		c-2.112-2.24-7.103-3.968-12.991-3.968c-5.568,0-9.215,1.408-12.031,3.968c-4.672,4.288-5.888,10.367-5.888,16.575
		c0,15.23,11.583,22.782,20.159,22.782c5.696,0,9.151-0.64,11.711-3.583c1.088-1.217,1.92-3.072,2.176-4.225
		c0.192-1.023,0.32-1.279,0.832-1.279c0.448,0,0.576,0.447,0.576,0.959c0,0.769-0.768,6.336-1.408,8.512
		c-0.32,1.088-0.576,1.408-1.664,1.856c-2.56,1.024-7.423,1.472-11.519,1.472C28.701,73.688,21.341,71.768,15.518,66.712z"/>
	<path fill="#E5E5E5" d="M70.877,42.97c0-9.727,0-11.519-0.128-13.567c-0.128-2.176-0.768-3.264-2.176-3.584
		c-0.704-0.192-1.536-0.256-2.304-0.256c-0.64,0-1.024-0.128-1.024-0.64c0-0.384,0.512-0.512,1.536-0.512
		c2.432,0,6.464,0.192,8.319,0.192c1.6,0,5.376-0.192,7.808-0.192c0.832,0,1.344,0.128,1.344,0.512c0,0.512-0.384,0.64-1.024,0.64
		c-0.64,0-1.152,0.064-1.92,0.192c-1.728,0.32-2.24,1.408-2.368,3.648c-0.128,2.048-0.128,3.84-0.128,13.567v11.263
		c0,6.208,0,11.264,0.256,14.016c0.192,1.728,0.64,2.88,2.56,3.136c0.896,0.128,2.304,0.256,3.264,0.256
		c0.704,0,1.024,0.192,1.024,0.513c0,0.447-0.512,0.639-1.216,0.639c-4.224,0-8.255-0.191-9.983-0.191
		c-1.472,0-5.503,0.191-8.063,0.191c-0.832,0-1.28-0.191-1.28-0.639c0-0.32,0.256-0.513,1.024-0.513c0.96,0,1.728-0.128,2.304-0.256
		c1.28-0.256,1.664-1.345,1.856-3.2c0.32-2.688,0.32-7.743,0.32-13.951V42.97z"/>
	<path fill="#E5E5E5" d="M99.037,30.683c-1.472-3.52-2.56-4.224-4.863-4.864c-0.96-0.256-1.984-0.256-2.496-0.256
		c-0.576,0-0.768-0.192-0.768-0.576c0-0.512,0.704-0.576,1.664-0.576c3.392,0,7.04,0.192,9.279,0.192c1.6,0,4.672-0.192,7.872-0.192
		c0.768,0,1.472,0.128,1.472,0.576c0,0.448-0.384,0.576-0.96,0.576c-1.023,0-1.983,0.064-2.496,0.448
		c-0.448,0.32-0.64,0.768-0.64,1.344c0,0.832,0.576,2.624,1.472,4.928l11.007,29.053h0.256c2.752-7.039,11.071-27.646,12.607-31.869
		c0.319-0.832,0.575-1.792,0.575-2.368c0-0.512-0.256-1.024-0.832-1.216c-0.768-0.256-1.728-0.32-2.56-0.32
		c-0.576,0-1.088-0.064-1.088-0.512c0-0.512,0.576-0.64,1.792-0.64c3.2,0,5.888,0.192,6.72,0.192c1.088,0,4.096-0.192,6.016-0.192
		c0.832,0,1.344,0.128,1.344,0.576c0,0.448-0.384,0.576-1.024,0.576c-0.64,0-1.983,0-3.136,0.768
		c-0.832,0.576-1.791,1.664-3.52,5.759c-2.496,6.016-4.224,9.472-7.68,17.343c-4.096,9.344-7.104,16.319-8.511,19.518
		c-1.664,3.713-2.048,4.736-2.944,4.736c-0.832,0-1.216-0.896-2.432-3.904L99.037,30.683z"/>
	<path fill="#E5E5E5" d="M156.381,42.97c0-9.727,0-11.519-0.128-13.567c-0.128-2.176-0.768-3.264-2.176-3.584
		c-0.704-0.192-1.536-0.256-2.304-0.256c-0.64,0-1.024-0.128-1.024-0.64c0-0.384,0.513-0.512,1.536-0.512
		c2.432,0,6.464,0.192,8.319,0.192c1.6,0,5.376-0.192,7.808-0.192c0.832,0,1.344,0.128,1.344,0.512c0,0.512-0.384,0.64-1.023,0.64
		c-0.641,0-1.152,0.064-1.92,0.192c-1.729,0.32-2.24,1.408-2.368,3.648c-0.128,2.048-0.128,3.84-0.128,13.567v11.263
		c0,6.208,0,11.264,0.256,14.016c0.192,1.728,0.64,2.88,2.56,3.136c0.896,0.128,2.304,0.256,3.264,0.256
		c0.704,0,1.024,0.192,1.024,0.513c0,0.447-0.512,0.639-1.216,0.639c-4.224,0-8.256-0.191-9.983-0.191
		c-1.472,0-5.504,0.191-8.063,0.191c-0.832,0-1.28-0.191-1.28-0.639c0-0.32,0.257-0.513,1.024-0.513c0.96,0,1.728-0.128,2.304-0.256
		c1.28-0.256,1.664-1.345,1.855-3.2c0.32-2.688,0.32-7.743,0.32-13.951V42.97z"/>
	<path fill="#E5E5E5" d="M198.429,54.232c0,8.191,0,12.607,1.344,13.76c1.088,0.959,2.752,1.408,7.743,1.408
		c3.392,0,5.888-0.064,7.487-1.793c0.769-0.832,1.536-2.623,1.664-3.84c0.063-0.575,0.192-0.959,0.704-0.959
		c0.447,0,0.512,0.32,0.512,1.088c0,0.703-0.448,5.504-0.96,7.359c-0.384,1.408-0.704,1.728-4.031,1.728
		c-4.608,0-7.936-0.128-10.815-0.192c-2.88-0.127-5.184-0.191-7.808-0.191c-0.704,0-2.112,0-3.647,0.064
		c-1.473,0-3.136,0.127-4.416,0.127c-0.832,0-1.28-0.191-1.28-0.639c0-0.32,0.257-0.513,1.024-0.513c0.96,0,1.728-0.128,2.304-0.256
		c1.28-0.256,1.6-1.664,1.855-3.521c0.32-2.688,0.32-7.742,0.32-13.631V42.97c0-9.727,0-11.519-0.128-13.567
		c-0.128-2.176-0.64-3.2-2.752-3.648c-0.512-0.128-1.279-0.192-2.111-0.192c-0.704,0-1.088-0.128-1.088-0.576
		c0-0.448,0.447-0.576,1.407-0.576c3.008,0,7.04,0.192,8.768,0.192c1.536,0,6.208-0.192,8.703-0.192
		c0.896,0,1.345,0.128,1.345,0.576c0,0.448-0.385,0.576-1.152,0.576c-0.704,0-1.728,0.064-2.496,0.192
		c-1.728,0.32-2.239,1.408-2.367,3.648c-0.128,2.048-0.128,3.84-0.128,13.567V54.232z"/>
	<path fill="#E5E5E5" d="M234.268,42.97c0-9.727,0-11.519-0.128-13.567c-0.128-2.176-0.768-3.264-2.176-3.584
		c-0.704-0.192-1.536-0.256-2.304-0.256c-0.64,0-1.024-0.128-1.024-0.64c0-0.384,0.513-0.512,1.536-0.512
		c2.432,0,6.464,0.192,8.319,0.192c1.6,0,5.376-0.192,7.808-0.192c0.832,0,1.344,0.128,1.344,0.512c0,0.512-0.384,0.64-1.023,0.64
		c-0.641,0-1.152,0.064-1.92,0.192c-1.729,0.32-2.24,1.408-2.368,3.648c-0.128,2.048-0.128,3.84-0.128,13.567v11.263
		c0,6.208,0,11.264,0.256,14.016c0.192,1.728,0.64,2.88,2.56,3.136c0.896,0.128,2.304,0.256,3.264,0.256
		c0.704,0,1.024,0.192,1.024,0.513c0,0.447-0.512,0.639-1.216,0.639c-4.224,0-8.256-0.191-9.983-0.191
		c-1.472,0-5.504,0.191-8.063,0.191c-0.832,0-1.28-0.191-1.28-0.639c0-0.32,0.257-0.513,1.024-0.513c0.96,0,1.728-0.128,2.304-0.256
		c1.28-0.256,1.664-1.345,1.855-3.2c0.32-2.688,0.32-7.743,0.32-13.951V42.97z"/>
	<path fill="#E5E5E5" d="M264.796,72.023c-1.024-0.447-1.216-0.768-1.216-2.176c0-3.52,0.256-7.359,0.319-8.383
		c0.064-0.961,0.257-1.664,0.769-1.664c0.576,0,0.64,0.576,0.64,1.088c0,0.832,0.256,2.176,0.576,3.264
		c1.408,4.735,5.184,6.463,9.151,6.463c5.76,0,8.575-3.903,8.575-7.295c0-3.136-0.96-6.08-6.271-10.239l-2.943-2.304
		c-7.04-5.504-9.472-9.983-9.472-15.167c0-7.04,5.888-12.095,14.783-12.095c4.159,0,6.848,0.64,8.511,1.088
		c0.576,0.128,0.896,0.32,0.896,0.768c0,0.832-0.256,2.688-0.256,7.679c0,1.408-0.192,1.92-0.704,1.92
		c-0.448,0-0.641-0.384-0.641-1.152c0-0.576-0.319-2.56-1.663-4.224c-0.96-1.216-2.816-3.136-6.976-3.136
		c-4.736,0-7.615,2.752-7.615,6.591c0,2.944,1.472,5.184,6.783,9.215l1.792,1.344c7.743,5.823,10.495,10.24,10.495,16.319
		c0,3.712-1.408,8.128-6.016,11.136c-3.2,2.047-6.783,2.623-10.176,2.623C270.428,73.688,267.548,73.24,264.796,72.023z"/>
</g>
<g>
</g>
<g>
</g>
<g>
</g>
<g>
</g>
<g>
</g>
<g>
</g>
<g>
</g>
<g>
</g>
<g>
</g>
<g>
</g>
<g>
</g>
<g>
</g>
<g>
</g>
<g>
</g>
<g>
</g>
</svg>
